<mxfile host="app.diagrams.net" modified="2023-05-17T19:34:04.166Z" agent="Mozilla/5.0 (Windows NT 10.0; Win64; x64) AppleWebKit/537.36 (KHTML, like Gecko) Chrome/113.0.0.0 Safari/537.36" etag="ZZMaVM1QeDy7GkE3awsi" version="21.3.2" type="device">
  <diagram name="Pagina-1" id="QkisJYY0irT1lxUiS0py">
    <mxGraphModel dx="1461" dy="655" grid="1" gridSize="10" guides="1" tooltips="1" connect="1" arrows="1" fold="1" page="1" pageScale="1" pageWidth="827" pageHeight="1169" math="0" shadow="0">
      <root>
        <mxCell id="0" />
        <mxCell id="1" parent="0" />
        <mxCell id="_fPaHgEcoAwtYHAUsSDk-13" style="edgeStyle=orthogonalEdgeStyle;rounded=0;orthogonalLoop=1;jettySize=auto;html=1;entryX=0;entryY=0.5;entryDx=0;entryDy=0;" edge="1" parent="1" source="_fPaHgEcoAwtYHAUsSDk-1" target="_fPaHgEcoAwtYHAUsSDk-7">
          <mxGeometry relative="1" as="geometry" />
        </mxCell>
        <mxCell id="_fPaHgEcoAwtYHAUsSDk-14" style="edgeStyle=orthogonalEdgeStyle;rounded=0;orthogonalLoop=1;jettySize=auto;html=1;entryX=0;entryY=0.5;entryDx=0;entryDy=0;" edge="1" parent="1" source="_fPaHgEcoAwtYHAUsSDk-1" target="_fPaHgEcoAwtYHAUsSDk-8">
          <mxGeometry relative="1" as="geometry" />
        </mxCell>
        <mxCell id="_fPaHgEcoAwtYHAUsSDk-15" style="edgeStyle=orthogonalEdgeStyle;rounded=0;orthogonalLoop=1;jettySize=auto;html=1;entryX=0;entryY=0.5;entryDx=0;entryDy=0;" edge="1" parent="1" source="_fPaHgEcoAwtYHAUsSDk-1" target="_fPaHgEcoAwtYHAUsSDk-9">
          <mxGeometry relative="1" as="geometry" />
        </mxCell>
        <mxCell id="_fPaHgEcoAwtYHAUsSDk-16" style="edgeStyle=orthogonalEdgeStyle;rounded=0;orthogonalLoop=1;jettySize=auto;html=1;entryX=0;entryY=0.5;entryDx=0;entryDy=0;" edge="1" parent="1" source="_fPaHgEcoAwtYHAUsSDk-1" target="_fPaHgEcoAwtYHAUsSDk-10">
          <mxGeometry relative="1" as="geometry" />
        </mxCell>
        <mxCell id="_fPaHgEcoAwtYHAUsSDk-17" style="edgeStyle=orthogonalEdgeStyle;rounded=0;orthogonalLoop=1;jettySize=auto;html=1;entryX=0;entryY=0.5;entryDx=0;entryDy=0;" edge="1" parent="1" source="_fPaHgEcoAwtYHAUsSDk-1" target="_fPaHgEcoAwtYHAUsSDk-11">
          <mxGeometry relative="1" as="geometry" />
        </mxCell>
        <mxCell id="_fPaHgEcoAwtYHAUsSDk-1" value="Actor" style="shape=umlActor;verticalLabelPosition=bottom;verticalAlign=top;html=1;outlineConnect=0;" vertex="1" parent="1">
          <mxGeometry x="60" y="465" width="30" height="60" as="geometry" />
        </mxCell>
        <mxCell id="_fPaHgEcoAwtYHAUsSDk-21" style="edgeStyle=orthogonalEdgeStyle;rounded=0;orthogonalLoop=1;jettySize=auto;html=1;entryX=0;entryY=0.5;entryDx=0;entryDy=0;" edge="1" parent="1" source="_fPaHgEcoAwtYHAUsSDk-7" target="_fPaHgEcoAwtYHAUsSDk-19">
          <mxGeometry relative="1" as="geometry" />
        </mxCell>
        <mxCell id="_fPaHgEcoAwtYHAUsSDk-22" style="edgeStyle=orthogonalEdgeStyle;rounded=0;orthogonalLoop=1;jettySize=auto;html=1;entryX=0;entryY=0.5;entryDx=0;entryDy=0;" edge="1" parent="1" source="_fPaHgEcoAwtYHAUsSDk-7" target="_fPaHgEcoAwtYHAUsSDk-20">
          <mxGeometry relative="1" as="geometry" />
        </mxCell>
        <mxCell id="_fPaHgEcoAwtYHAUsSDk-7" value="HOME" style="ellipse;whiteSpace=wrap;html=1;" vertex="1" parent="1">
          <mxGeometry x="180" y="135" width="120" height="40" as="geometry" />
        </mxCell>
        <mxCell id="_fPaHgEcoAwtYHAUsSDk-34" style="edgeStyle=orthogonalEdgeStyle;rounded=0;orthogonalLoop=1;jettySize=auto;html=1;entryX=0;entryY=0.5;entryDx=0;entryDy=0;" edge="1" parent="1" source="_fPaHgEcoAwtYHAUsSDk-8" target="_fPaHgEcoAwtYHAUsSDk-23">
          <mxGeometry relative="1" as="geometry" />
        </mxCell>
        <mxCell id="_fPaHgEcoAwtYHAUsSDk-37" style="edgeStyle=orthogonalEdgeStyle;rounded=0;orthogonalLoop=1;jettySize=auto;html=1;entryX=0;entryY=0.5;entryDx=0;entryDy=0;" edge="1" parent="1" source="_fPaHgEcoAwtYHAUsSDk-8" target="_fPaHgEcoAwtYHAUsSDk-35">
          <mxGeometry relative="1" as="geometry" />
        </mxCell>
        <mxCell id="_fPaHgEcoAwtYHAUsSDk-38" style="edgeStyle=orthogonalEdgeStyle;rounded=0;orthogonalLoop=1;jettySize=auto;html=1;entryX=0;entryY=0.5;entryDx=0;entryDy=0;" edge="1" parent="1" source="_fPaHgEcoAwtYHAUsSDk-8" target="_fPaHgEcoAwtYHAUsSDk-36">
          <mxGeometry relative="1" as="geometry" />
        </mxCell>
        <mxCell id="_fPaHgEcoAwtYHAUsSDk-8" value="LAVORATORI" style="ellipse;whiteSpace=wrap;html=1;" vertex="1" parent="1">
          <mxGeometry x="180" y="282.5" width="120" height="40" as="geometry" />
        </mxCell>
        <mxCell id="_fPaHgEcoAwtYHAUsSDk-29" style="edgeStyle=orthogonalEdgeStyle;rounded=0;orthogonalLoop=1;jettySize=auto;html=1;entryX=0;entryY=0.5;entryDx=0;entryDy=0;" edge="1" parent="1" source="_fPaHgEcoAwtYHAUsSDk-9" target="_fPaHgEcoAwtYHAUsSDk-25">
          <mxGeometry relative="1" as="geometry">
            <Array as="points">
              <mxPoint x="310" y="590" />
              <mxPoint x="310" y="483" />
            </Array>
          </mxGeometry>
        </mxCell>
        <mxCell id="_fPaHgEcoAwtYHAUsSDk-30" style="edgeStyle=orthogonalEdgeStyle;rounded=0;orthogonalLoop=1;jettySize=auto;html=1;entryX=0;entryY=0.5;entryDx=0;entryDy=0;" edge="1" parent="1" source="_fPaHgEcoAwtYHAUsSDk-9" target="_fPaHgEcoAwtYHAUsSDk-26">
          <mxGeometry relative="1" as="geometry">
            <Array as="points">
              <mxPoint x="310" y="591" />
              <mxPoint x="310" y="563" />
            </Array>
          </mxGeometry>
        </mxCell>
        <mxCell id="_fPaHgEcoAwtYHAUsSDk-31" style="edgeStyle=orthogonalEdgeStyle;rounded=0;orthogonalLoop=1;jettySize=auto;html=1;entryX=0;entryY=0.5;entryDx=0;entryDy=0;" edge="1" parent="1" source="_fPaHgEcoAwtYHAUsSDk-9" target="_fPaHgEcoAwtYHAUsSDk-27">
          <mxGeometry relative="1" as="geometry">
            <Array as="points">
              <mxPoint x="310" y="590" />
              <mxPoint x="310" y="638" />
            </Array>
          </mxGeometry>
        </mxCell>
        <mxCell id="_fPaHgEcoAwtYHAUsSDk-32" style="edgeStyle=orthogonalEdgeStyle;rounded=0;orthogonalLoop=1;jettySize=auto;html=1;entryX=0;entryY=0.5;entryDx=0;entryDy=0;" edge="1" parent="1" source="_fPaHgEcoAwtYHAUsSDk-9" target="_fPaHgEcoAwtYHAUsSDk-28">
          <mxGeometry relative="1" as="geometry">
            <Array as="points">
              <mxPoint x="310" y="590" />
              <mxPoint x="310" y="713" />
            </Array>
          </mxGeometry>
        </mxCell>
        <mxCell id="_fPaHgEcoAwtYHAUsSDk-9" value="CLIENTI" style="ellipse;whiteSpace=wrap;html=1;" vertex="1" parent="1">
          <mxGeometry x="176" y="571" width="120" height="40" as="geometry" />
        </mxCell>
        <mxCell id="_fPaHgEcoAwtYHAUsSDk-45" style="edgeStyle=orthogonalEdgeStyle;rounded=0;orthogonalLoop=1;jettySize=auto;html=1;entryX=0;entryY=0.5;entryDx=0;entryDy=0;" edge="1" parent="1" source="_fPaHgEcoAwtYHAUsSDk-10" target="_fPaHgEcoAwtYHAUsSDk-41">
          <mxGeometry relative="1" as="geometry" />
        </mxCell>
        <mxCell id="_fPaHgEcoAwtYHAUsSDk-47" style="edgeStyle=orthogonalEdgeStyle;rounded=0;orthogonalLoop=1;jettySize=auto;html=1;entryX=0;entryY=0.5;entryDx=0;entryDy=0;" edge="1" parent="1">
          <mxGeometry relative="1" as="geometry">
            <mxPoint x="292" y="940" as="sourcePoint" />
            <mxPoint x="358" y="896.5" as="targetPoint" />
            <Array as="points">
              <mxPoint x="328" y="940" />
              <mxPoint x="328" y="897" />
            </Array>
          </mxGeometry>
        </mxCell>
        <mxCell id="_fPaHgEcoAwtYHAUsSDk-48" style="edgeStyle=orthogonalEdgeStyle;rounded=0;orthogonalLoop=1;jettySize=auto;html=1;entryX=0;entryY=0.5;entryDx=0;entryDy=0;" edge="1" parent="1" source="_fPaHgEcoAwtYHAUsSDk-10" target="_fPaHgEcoAwtYHAUsSDk-43">
          <mxGeometry relative="1" as="geometry" />
        </mxCell>
        <mxCell id="_fPaHgEcoAwtYHAUsSDk-49" style="edgeStyle=orthogonalEdgeStyle;rounded=0;orthogonalLoop=1;jettySize=auto;html=1;entryX=0;entryY=0.5;entryDx=0;entryDy=0;" edge="1" parent="1" source="_fPaHgEcoAwtYHAUsSDk-10" target="_fPaHgEcoAwtYHAUsSDk-44">
          <mxGeometry relative="1" as="geometry" />
        </mxCell>
        <mxCell id="_fPaHgEcoAwtYHAUsSDk-10" value="LAVORI" style="ellipse;whiteSpace=wrap;html=1;" vertex="1" parent="1">
          <mxGeometry x="174" y="920" width="120" height="40" as="geometry" />
        </mxCell>
        <mxCell id="_fPaHgEcoAwtYHAUsSDk-40" style="edgeStyle=orthogonalEdgeStyle;rounded=0;orthogonalLoop=1;jettySize=auto;html=1;entryX=0;entryY=0.5;entryDx=0;entryDy=0;" edge="1" parent="1" source="_fPaHgEcoAwtYHAUsSDk-11" target="_fPaHgEcoAwtYHAUsSDk-39">
          <mxGeometry relative="1" as="geometry" />
        </mxCell>
        <mxCell id="_fPaHgEcoAwtYHAUsSDk-11" value="MAPPA" style="ellipse;whiteSpace=wrap;html=1;" vertex="1" parent="1">
          <mxGeometry x="174" y="1110" width="120" height="40" as="geometry" />
        </mxCell>
        <mxCell id="_fPaHgEcoAwtYHAUsSDk-19" value="VISUALIZZAZIONE ELENCO LAVORI FUTURI" style="ellipse;whiteSpace=wrap;html=1;" vertex="1" parent="1">
          <mxGeometry x="382" y="122.5" width="166" height="65" as="geometry" />
        </mxCell>
        <mxCell id="_fPaHgEcoAwtYHAUsSDk-20" value="VISUALIZZAZIONE COMMENTI" style="ellipse;whiteSpace=wrap;html=1;" vertex="1" parent="1">
          <mxGeometry x="405" y="30" width="120" height="60" as="geometry" />
        </mxCell>
        <mxCell id="_fPaHgEcoAwtYHAUsSDk-23" value="AGGIUNTA NUOVO LAVORATORE" style="ellipse;whiteSpace=wrap;html=1;" vertex="1" parent="1">
          <mxGeometry x="382" y="210" width="166" height="65" as="geometry" />
        </mxCell>
        <mxCell id="_fPaHgEcoAwtYHAUsSDk-25" value="VISUALIZAZIONE&lt;br&gt;CLIENTI" style="ellipse;whiteSpace=wrap;html=1;" vertex="1" parent="1">
          <mxGeometry x="382" y="450" width="166" height="65" as="geometry" />
        </mxCell>
        <mxCell id="_fPaHgEcoAwtYHAUsSDk-26" value="VISUALIZZAZIONE&amp;nbsp;&lt;br&gt;GIARDINI" style="ellipse;whiteSpace=wrap;html=1;" vertex="1" parent="1">
          <mxGeometry x="382" y="530" width="166" height="65" as="geometry" />
        </mxCell>
        <mxCell id="_fPaHgEcoAwtYHAUsSDk-27" value="AGGIUNTA NUOVO GIARDINO" style="ellipse;whiteSpace=wrap;html=1;" vertex="1" parent="1">
          <mxGeometry x="377" y="605" width="166" height="65" as="geometry" />
        </mxCell>
        <mxCell id="_fPaHgEcoAwtYHAUsSDk-28" value="AGGIUNTA NUOVO&lt;br&gt;&amp;nbsp;CLIENTE" style="ellipse;whiteSpace=wrap;html=1;" vertex="1" parent="1">
          <mxGeometry x="377" y="680" width="166" height="65" as="geometry" />
        </mxCell>
        <mxCell id="_fPaHgEcoAwtYHAUsSDk-35" value="VISUALIZAZIONE&lt;br&gt;LAVORATORI" style="ellipse;whiteSpace=wrap;html=1;" vertex="1" parent="1">
          <mxGeometry x="382" y="282.5" width="166" height="65" as="geometry" />
        </mxCell>
        <mxCell id="_fPaHgEcoAwtYHAUsSDk-36" value="VISUALIZAZIONE&lt;br&gt;LAVORATORI&lt;br&gt;MIGLIOR LAVORATORE" style="ellipse;whiteSpace=wrap;html=1;" vertex="1" parent="1">
          <mxGeometry x="382" y="357.5" width="166" height="65" as="geometry" />
        </mxCell>
        <mxCell id="_fPaHgEcoAwtYHAUsSDk-39" value="VISUALIZZAZIONE&amp;nbsp;&lt;br&gt;MAPPA" style="ellipse;whiteSpace=wrap;html=1;" vertex="1" parent="1">
          <mxGeometry x="359" y="1097.5" width="166" height="65" as="geometry" />
        </mxCell>
        <mxCell id="_fPaHgEcoAwtYHAUsSDk-41" value="AGGIUNTA NUOVO&lt;br&gt;&amp;nbsp;LAVORO" style="ellipse;whiteSpace=wrap;html=1;" vertex="1" parent="1">
          <mxGeometry x="360" y="784" width="166" height="65" as="geometry" />
        </mxCell>
        <mxCell id="_fPaHgEcoAwtYHAUsSDk-42" value="VISUALIZZAZIONE&amp;nbsp;&lt;br&gt;LAVORI TOTALI" style="ellipse;whiteSpace=wrap;html=1;" vertex="1" parent="1">
          <mxGeometry x="360" y="864" width="166" height="65" as="geometry" />
        </mxCell>
        <mxCell id="_fPaHgEcoAwtYHAUsSDk-43" value="AGGIUNTA NUOVO&lt;br&gt;&amp;nbsp;UTENSILE" style="ellipse;whiteSpace=wrap;html=1;" vertex="1" parent="1">
          <mxGeometry x="360" y="934" width="166" height="65" as="geometry" />
        </mxCell>
        <mxCell id="_fPaHgEcoAwtYHAUsSDk-44" value="VISUALIZZAZIONE&amp;nbsp;&lt;br&gt;UTENSILI" style="ellipse;whiteSpace=wrap;html=1;" vertex="1" parent="1">
          <mxGeometry x="360" y="1014" width="166" height="65" as="geometry" />
        </mxCell>
      </root>
    </mxGraphModel>
  </diagram>
</mxfile>
